<svg width="533" height="137" viewBox="0 0 533 137" fill="none" xmlns="http://www.w3.org/2000/svg">
<path d="M141.09 77.7141C141.09 66.2615 129.501 57.263 123.707 54.1953L90.985 53.4655L22.4737 89.122L29.8722 93.0525L101.211 56.2404C111.777 56.2404 132.092 62.1398 128.82 85.7373C125.547 109.335 81.8868 111.282 60.4656 109.305L73.6802 116.325C101.557 118.583 120.692 110.613 126.774 106.346V116.325L141.09 109.305V85.7373H189.15L205.511 77.7141H186.083V67.9998L171.767 60.8419V77.7141H141.09Z" fill="white"/>
<path d="M60.4656 109.305C81.8868 111.282 125.547 109.335 128.82 85.7373C132.092 62.1398 111.777 56.2404 101.211 56.2404L29.8722 93.0525L60.4656 109.305Z" fill="#2C2C2C"/>
<path d="M99.1654 129.865L126.774 116.325V106.346C120.692 110.613 101.557 118.583 73.6802 116.325L99.1654 129.865Z" fill="#2C2C2C"/>
<path d="M189.15 85.7373H141.09V109.305L189.15 85.7373Z" fill="#2C2C2C"/>
<path d="M1 77.7141L22.4737 89.122L90.985 53.4655L123.707 54.1953C129.501 57.263 141.09 66.2615 141.09 77.7141H171.767V60.8419L126.774 38.3457L105.301 51.1277L90.985 46.0149L79.7368 38.3457L1 77.7141Z" fill="#2C2C2C"/>
<path d="M205.511 77.7141L186.083 67.9998V77.7141H205.511Z" fill="#2C2C2C"/>
<path d="M205.511 77.7141L189.15 85.7373L141.09 109.305L126.774 116.325L99.1654 129.865V136L205.511 82.8269V77.7141Z" fill="white"/>
<path d="M22.4737 89.122L1 77.7141V82.8269L99.1654 136V129.865L73.6802 116.325L60.4656 109.305L29.8722 93.0525L22.4737 89.122Z" fill="white"/>
<path d="M1 77.7141L22.4737 89.122M1 77.7141V82.8269L99.1654 136M1 77.7141L79.7368 38.3457L90.985 46.0149L105.301 51.1277L126.774 38.3457L171.767 60.8419M205.511 77.7141L186.083 67.9998M205.511 77.7141H186.083V67.9998M205.511 77.7141L189.15 85.7373M205.511 77.7141V82.8269L99.1654 136M99.1654 129.865L126.774 116.325M99.1654 129.865L73.6802 116.325M99.1654 129.865V136M22.4737 89.122L29.8722 93.0525M22.4737 89.122L90.985 53.4655L123.707 54.1953C129.501 57.263 141.09 66.2615 141.09 77.7141H171.767V60.8419M171.767 60.8419L186.083 67.9998M189.15 85.7373H141.09V109.305M189.15 85.7373L141.09 109.305M141.09 109.305L126.774 116.325M126.774 116.325V106.346C120.692 110.613 101.557 118.583 73.6802 116.325M73.6802 116.325L60.4656 109.305M60.4656 109.305C81.8868 111.282 125.547 109.335 128.82 85.7373C132.092 62.1398 111.777 56.2404 101.211 56.2404L29.8722 93.0525M60.4656 109.305L29.8722 93.0525" stroke="#2C2C2C" stroke-width="1.02256"/>
<mask id="path-3-inside-1_71_19" fill="white">
<path fill-rule="evenodd" clip-rule="evenodd" d="M101.21 81.8043C117.571 66.466 127.797 53.5403 127.797 38.857C127.797 24.1737 115.894 12.2705 101.21 12.2705C86.5272 12.2705 74.624 24.1737 74.624 38.857C74.624 53.5403 86.8947 67.4886 101.21 81.8043ZM101.211 47.0376C106.858 47.0376 111.436 42.4595 111.436 36.812C111.436 31.1646 106.858 26.5865 101.211 26.5865C95.5631 26.5865 90.985 31.1646 90.985 36.812C90.985 42.4595 95.5631 47.0376 101.211 47.0376Z"/>
</mask>
<path fill-rule="evenodd" clip-rule="evenodd" d="M101.21 81.8043C117.571 66.466 127.797 53.5403 127.797 38.857C127.797 24.1737 115.894 12.2705 101.21 12.2705C86.5272 12.2705 74.624 24.1737 74.624 38.857C74.624 53.5403 86.8947 67.4886 101.21 81.8043ZM101.211 47.0376C106.858 47.0376 111.436 42.4595 111.436 36.812C111.436 31.1646 106.858 26.5865 101.211 26.5865C95.5631 26.5865 90.985 31.1646 90.985 36.812C90.985 42.4595 95.5631 47.0376 101.211 47.0376Z" fill="#2C2C2C"/>
<path d="M101.21 81.8043L99.7644 83.2505L101.165 84.6507L102.609 83.2963L101.21 81.8043ZM125.752 38.857C125.752 52.5645 116.21 64.9386 99.8118 80.3124L102.609 83.2963C118.932 67.9934 129.842 54.516 129.842 38.857H125.752ZM101.21 14.3156C114.764 14.3156 125.752 25.3032 125.752 38.857H129.842C129.842 23.0442 117.023 10.2254 101.21 10.2254V14.3156ZM76.6691 38.857C76.6691 25.3032 87.6567 14.3156 101.21 14.3156V10.2254C85.3977 10.2254 72.5789 23.0442 72.5789 38.857H76.6691ZM102.657 80.3582C95.5066 73.2082 88.9787 66.257 84.2377 59.3151C79.4964 52.3727 76.6691 45.6204 76.6691 38.857H72.5789C72.5789 46.7769 75.887 54.3403 80.86 61.6219C85.8332 68.9038 92.5986 76.0847 99.7644 83.2505L102.657 80.3582ZM109.391 36.812C109.391 41.33 105.728 44.9925 101.211 44.9925V49.0827C107.987 49.0827 113.481 43.5889 113.481 36.812H109.391ZM101.211 28.6316C105.728 28.6316 109.391 32.2941 109.391 36.812H113.481C113.481 30.0351 107.987 24.5414 101.211 24.5414V28.6316ZM93.0301 36.812C93.0301 32.2941 96.6926 28.6316 101.211 28.6316V24.5414C94.4336 24.5414 88.9398 30.0351 88.9398 36.812H93.0301ZM101.211 44.9925C96.6926 44.9925 93.0301 41.33 93.0301 36.812H88.9398C88.9398 43.5889 94.4336 49.0827 101.211 49.0827V44.9925Z" fill="white" mask="url(#path-3-inside-1_71_19)"/>
<path d="M249.513 124.442V126.12H236.428V124.442H249.513ZM237.019 102.857V126.12H235.053V102.857H237.019ZM247.883 113.29V114.968H236.428V113.29H247.883ZM249.433 102.857V104.551H236.428V102.857H249.433ZM272.846 102.857L279.397 112.683L285.963 102.857H288.296L280.595 114.313L288.536 126.12H286.187L279.397 115.974L272.606 126.12H270.274L278.214 114.313L270.513 102.857H272.846ZM318.931 116.645H312.3V114.968H318.931C320.315 114.968 321.439 114.744 322.302 114.297C323.175 113.839 323.809 113.221 324.203 112.443C324.608 111.666 324.81 110.792 324.81 109.823C324.81 108.875 324.608 108.002 324.203 107.203C323.809 106.404 323.175 105.765 322.302 105.286C321.439 104.796 320.315 104.551 318.931 104.551H312.987V126.12H311.022V102.857H318.931C320.635 102.857 322.067 103.15 323.229 103.736C324.4 104.322 325.284 105.136 325.881 106.18C326.477 107.224 326.776 108.428 326.776 109.791C326.776 111.218 326.477 112.449 325.881 113.482C325.284 114.505 324.406 115.287 323.244 115.831C322.083 116.374 320.645 116.645 318.931 116.645ZM363.29 124.442V126.12H351.227V124.442H363.29ZM351.802 102.857V126.12H349.837V102.857H351.802ZM401.865 113.242V115.735C401.865 117.364 401.652 118.84 401.226 120.161C400.81 121.471 400.203 122.594 399.404 123.532C398.616 124.469 397.668 125.188 396.56 125.689C395.453 126.189 394.206 126.44 392.822 126.44C391.469 126.44 390.233 126.189 389.115 125.689C388.007 125.188 387.054 124.469 386.255 123.532C385.456 122.594 384.838 121.471 384.402 120.161C383.965 118.84 383.747 117.364 383.747 115.735V113.242C383.747 111.613 383.96 110.143 384.386 108.833C384.822 107.512 385.44 106.383 386.239 105.445C387.038 104.508 387.991 103.789 389.099 103.288C390.207 102.788 391.437 102.537 392.79 102.537C394.175 102.537 395.421 102.788 396.529 103.288C397.636 103.789 398.59 104.508 399.389 105.445C400.187 106.383 400.8 107.512 401.226 108.833C401.652 110.143 401.865 111.613 401.865 113.242ZM399.916 115.735V113.21C399.916 111.836 399.756 110.601 399.436 109.504C399.128 108.406 398.664 107.469 398.046 106.692C397.439 105.914 396.694 105.317 395.81 104.902C394.925 104.487 393.919 104.279 392.79 104.279C391.693 104.279 390.707 104.487 389.834 104.902C388.961 105.317 388.215 105.914 387.597 106.692C386.99 107.469 386.521 108.406 386.191 109.504C385.872 110.601 385.712 111.836 385.712 113.21V115.735C385.712 117.119 385.872 118.366 386.191 119.474C386.521 120.571 386.995 121.513 387.613 122.302C388.231 123.079 388.977 123.676 389.85 124.091C390.734 124.506 391.725 124.714 392.822 124.714C393.961 124.714 394.968 124.506 395.842 124.091C396.715 123.676 397.455 123.079 398.062 122.302C398.67 121.513 399.128 120.571 399.436 119.474C399.756 118.366 399.916 117.119 399.916 115.735ZM425.437 102.857H432.995C434.603 102.857 435.999 103.118 437.181 103.64C438.363 104.162 439.274 104.934 439.913 105.957C440.563 106.968 440.888 108.215 440.888 109.695C440.888 110.792 440.653 111.788 440.185 112.683C439.727 113.578 439.093 114.329 438.283 114.936C437.474 115.532 436.536 115.942 435.471 116.166L434.784 116.422H426.716L426.684 114.744H433.442C434.656 114.744 435.668 114.51 436.478 114.041C437.287 113.572 437.895 112.955 438.299 112.188C438.715 111.41 438.922 110.579 438.922 109.695C438.922 108.641 438.693 107.73 438.235 106.963C437.788 106.186 437.122 105.589 436.238 105.174C435.354 104.758 434.273 104.551 432.995 104.551H427.403V126.12H425.437V102.857ZM439.801 126.12L433.778 115.719L435.887 115.703L441.894 125.912V126.12H439.801ZM479.399 124.442V126.12H466.314V124.442H479.399ZM466.905 102.857V126.12H464.939V102.857H466.905ZM477.769 113.29V114.968H466.314V113.29H477.769ZM479.319 102.857V104.551H466.314V102.857H479.319ZM502.173 102.857H509.73C511.338 102.857 512.734 103.118 513.916 103.64C515.098 104.162 516.009 104.934 516.648 105.957C517.298 106.968 517.623 108.215 517.623 109.695C517.623 110.792 517.389 111.788 516.92 112.683C516.462 113.578 515.828 114.329 515.019 114.936C514.209 115.532 513.272 115.942 512.206 116.166L511.519 116.422H503.451L503.419 114.744H510.177C511.392 114.744 512.404 114.51 513.213 114.041C514.023 113.572 514.63 112.955 515.035 112.188C515.45 111.41 515.658 110.579 515.658 109.695C515.658 108.641 515.429 107.73 514.971 106.963C514.523 106.186 513.858 105.589 512.973 105.174C512.089 104.758 511.008 104.551 509.73 104.551H504.138V126.12H502.173V102.857ZM516.536 126.12L510.513 115.719L512.622 115.703L518.629 125.912V126.12H516.536Z" fill="#2C2C2C"/>
<path d="M276.914 80.6466V91H241.828V80.6466H276.914ZM245.806 21.2105V91H232.625V21.2105H245.806ZM339.083 54.3318V57.9267C339.083 63.1993 338.38 67.9446 336.974 72.1626C335.568 76.3487 333.57 79.9117 330.982 82.8515C328.394 85.7914 325.31 88.0442 321.731 89.61C318.152 91.1758 314.174 91.9586 309.796 91.9586C305.482 91.9586 301.52 91.1758 297.909 89.61C294.33 88.0442 291.23 85.7914 288.61 82.8515C285.99 79.9117 283.961 76.3487 282.523 72.1626C281.085 67.9446 280.366 63.1993 280.366 57.9267V54.3318C280.366 49.0273 281.085 44.282 282.523 40.0959C283.961 35.9098 285.974 32.3468 288.562 29.407C291.15 26.4352 294.234 24.1664 297.813 22.6006C301.424 21.0348 305.386 20.2519 309.7 20.2519C314.078 20.2519 318.056 21.0348 321.635 22.6006C325.214 24.1664 328.298 26.4352 330.886 29.407C333.507 32.3468 335.52 35.9098 336.926 40.0959C338.364 44.282 339.083 49.0273 339.083 54.3318ZM325.758 57.9267V54.2359C325.758 50.4333 325.406 47.094 324.703 44.218C324 41.3102 322.961 38.8656 321.587 36.8844C320.213 34.9032 318.52 33.4173 316.507 32.4267C314.493 31.4041 312.225 30.8929 309.7 30.8929C307.144 30.8929 304.875 31.4041 302.894 32.4267C300.945 33.4173 299.283 34.9032 297.909 36.8844C296.535 38.8656 295.48 41.3102 294.745 44.218C294.042 47.094 293.691 50.4333 293.691 54.2359V57.9267C293.691 61.6974 294.042 65.0367 294.745 67.9446C295.48 70.8524 296.535 73.313 297.909 75.3261C299.315 77.3073 301.008 78.8092 302.99 79.8318C304.971 80.8543 307.24 81.3656 309.796 81.3656C312.352 81.3656 314.621 80.8543 316.602 79.8318C318.584 78.8092 320.245 77.3073 321.587 75.3261C322.961 73.313 324 70.8524 324.703 67.9446C325.406 65.0367 325.758 61.6974 325.758 57.9267ZM391.089 68.0404H404.271C403.919 72.7058 402.625 76.844 400.388 80.4549C398.151 84.0338 395.036 86.8459 391.041 88.891C387.047 90.9361 382.206 91.9586 376.518 91.9586C372.14 91.9586 368.194 91.1917 364.679 89.6579C361.195 88.0921 358.208 85.8712 355.715 82.9953C353.255 80.0874 351.369 76.6043 350.059 72.5461C348.749 68.4558 348.094 63.8703 348.094 58.7895V53.469C348.094 48.3882 348.765 43.8026 350.107 39.7124C351.449 35.6222 353.367 32.1391 355.859 29.2632C358.383 26.3553 361.403 24.1184 364.918 22.5526C368.465 20.9868 372.428 20.204 376.805 20.204C382.493 20.204 387.303 21.2585 391.233 23.3675C395.164 25.4446 398.215 28.3045 400.388 31.9474C402.561 35.5902 403.871 39.7763 404.319 44.5056H391.137C390.882 41.5658 390.242 39.0733 389.22 37.0282C388.229 34.9831 386.727 33.4333 384.714 32.3788C382.733 31.2923 380.097 30.7491 376.805 30.7491C374.249 30.7491 371.996 31.2284 370.047 32.187C368.13 33.1457 366.532 34.5837 365.254 36.5009C363.976 38.3863 363.017 40.7509 362.378 43.5949C361.739 46.407 361.419 49.6664 361.419 53.3731V58.7895C361.419 62.3365 361.707 65.516 362.282 68.328C362.857 71.14 363.752 73.5207 364.966 75.4699C366.18 77.4192 367.746 78.9051 369.664 79.9276C371.581 80.9502 373.866 81.4615 376.518 81.4615C379.745 81.4615 382.366 80.9502 384.379 79.9276C386.424 78.9051 387.974 77.4032 389.028 75.422C390.115 73.4408 390.802 70.9803 391.089 68.0404ZM442.233 31.8036L422.341 91H408.393L434.468 21.2105H443.383L442.233 31.8036ZM458.866 91L438.878 31.8036L437.679 21.2105H446.643L472.862 91H458.866ZM457.955 65.0686V75.4699H420.52V65.0686H457.955ZM524.341 80.6466V91H489.255V80.6466H524.341ZM493.233 21.2105V91H480.052V21.2105H493.233Z" fill="#2C2C2C"/>
</svg>
