<svg width="656" height="79" viewBox="0 0 656 79" fill="none" xmlns="http://www.w3.org/2000/svg">
<path d="M295.376 41.5556C295.376 34.2833 288.017 28.5694 284.337 26.6215L263.559 26.158L220.055 48.7995L224.753 51.2953L270.053 27.9201C276.762 27.9201 289.662 31.6661 287.584 46.6502C285.506 61.6344 257.782 62.8706 244.18 61.6156L252.571 66.0734C270.272 67.5069 282.423 62.446 286.285 59.7364V66.0734L295.376 61.6156V46.6502H325.893L336.282 41.5556H323.945V35.3872L314.855 30.842V41.5556H295.376Z" fill="white"/>
<path d="M244.18 61.6156C257.782 62.8706 285.506 61.6344 287.584 46.6502C289.662 31.6661 276.762 27.9201 270.053 27.9201L224.753 51.2953L244.18 61.6156Z" fill="#2C2C2C"/>
<path d="M268.754 74.6706L286.285 66.0734V59.7364C282.423 62.446 270.272 67.5069 252.571 66.0734L268.754 74.6706Z" fill="#2C2C2C"/>
<path d="M325.893 46.6502H295.376V61.6156L325.893 46.6502Z" fill="#2C2C2C"/>
<path d="M206.42 41.5556L220.055 48.7995L263.559 26.158L284.337 26.6215C288.017 28.5694 295.376 34.2833 295.376 41.5556H314.855V30.842L286.285 16.5571L272.65 24.6735L263.559 21.427L256.417 16.5571L206.42 41.5556Z" fill="#2C2C2C"/>
<path d="M336.282 41.5556L323.945 35.3872V41.5556H336.282Z" fill="#2C2C2C"/>
<path d="M336.282 41.5556L325.893 46.6502L295.376 61.6156L286.285 66.0734L268.754 74.6706V78.5664L336.282 44.8022V41.5556Z" fill="white"/>
<path d="M220.055 48.7995L206.42 41.5556V44.8022L268.754 78.5664V74.6706L252.571 66.0734L244.18 61.6156L224.753 51.2953L220.055 48.7995Z" fill="white"/>
<path d="M206.42 41.5556L220.055 48.7995M206.42 41.5556V44.8022L268.754 78.5664M206.42 41.5556L256.417 16.5571L263.559 21.427L272.65 24.6735L286.285 16.5571L314.855 30.842M336.282 41.5556L323.945 35.3872M336.282 41.5556H323.945V35.3872M336.282 41.5556L325.893 46.6502M336.282 41.5556V44.8022L268.754 78.5664M268.754 74.6706L286.285 66.0734M268.754 74.6706L252.571 66.0734M268.754 74.6706V78.5664M220.055 48.7995L224.753 51.2953M220.055 48.7995L263.559 26.158L284.337 26.6215C288.017 28.5694 295.376 34.2833 295.376 41.5556H314.855V30.842M314.855 30.842L323.945 35.3872M325.893 46.6502H295.376V61.6156M325.893 46.6502L295.376 61.6156M295.376 61.6156L286.285 66.0734M286.285 66.0734V59.7364C282.423 62.446 270.272 67.5069 252.571 66.0734M252.571 66.0734L244.18 61.6156M244.18 61.6156C257.782 62.8706 285.506 61.6344 287.584 46.6502C289.662 31.6661 276.762 27.9201 270.053 27.9201L224.753 51.2953M244.18 61.6156L224.753 51.2953" stroke="#2C2C2C" stroke-width="0.649312"/>
<mask id="path-3-inside-1_71_21" fill="white">
<path fill-rule="evenodd" clip-rule="evenodd" d="M270.052 44.1532C280.441 34.4135 286.934 26.2058 286.934 16.8821C286.934 7.55838 279.376 0 270.052 0C260.728 0 253.17 7.55838 253.17 16.8821C253.17 26.2058 260.962 35.0629 270.052 44.1532ZM270.052 22.0765C273.638 22.0765 276.545 19.1694 276.545 15.5834C276.545 11.9973 273.638 9.09026 270.052 9.09026C266.466 9.09026 263.559 11.9973 263.559 15.5834C263.559 19.1694 266.466 22.0765 270.052 22.0765Z"/>
</mask>
<path fill-rule="evenodd" clip-rule="evenodd" d="M270.052 44.1532C280.441 34.4135 286.934 26.2058 286.934 16.8821C286.934 7.55838 279.376 0 270.052 0C260.728 0 253.17 7.55838 253.17 16.8821C253.17 26.2058 260.962 35.0629 270.052 44.1532ZM270.052 22.0765C273.638 22.0765 276.545 19.1694 276.545 15.5834C276.545 11.9973 273.638 9.09026 270.052 9.09026C266.466 9.09026 263.559 11.9973 263.559 15.5834C263.559 19.1694 266.466 22.0765 270.052 22.0765Z" fill="#2C2C2C"/>
<path d="M270.052 44.1532L269.134 45.0715L270.023 45.9606L270.94 45.1006L270.052 44.1532ZM285.636 16.8821C285.636 25.5863 279.577 33.4437 269.164 43.2058L270.94 45.1006C281.305 35.3834 288.233 26.8254 288.233 16.8821H285.636ZM270.052 1.29862C278.659 1.29862 285.636 8.27559 285.636 16.8821H288.233C288.233 6.84117 280.093 -1.29862 270.052 -1.29862V1.29862ZM254.469 16.8821C254.469 8.27559 261.446 1.29862 270.052 1.29862V-1.29862C260.011 -1.29862 251.871 6.84117 251.871 16.8821H254.469ZM270.97 43.235C266.43 38.6948 262.285 34.2808 259.274 29.8728C256.264 25.4645 254.469 21.1768 254.469 16.8821H251.871C251.871 21.9112 253.972 26.7139 257.13 31.3376C260.288 35.9615 264.584 40.5213 269.134 45.0715L270.97 43.235ZM275.247 15.5834C275.247 18.4522 272.921 20.7779 270.052 20.7779V23.3751C274.355 23.3751 277.844 19.8866 277.844 15.5834H275.247ZM270.052 10.3889C272.921 10.3889 275.247 12.7145 275.247 15.5834H277.844C277.844 11.2801 274.355 7.79164 270.052 7.79164V10.3889ZM264.858 15.5834C264.858 12.7145 267.183 10.3889 270.052 10.3889V7.79164C265.749 7.79164 262.26 11.2801 262.26 15.5834H264.858ZM270.052 20.7779C267.183 20.7779 264.858 18.4522 264.858 15.5834H262.26C262.26 19.8866 265.749 23.3751 270.052 23.3751V20.7779Z" fill="white" mask="url(#path-3-inside-1_71_21)"/>
<path d="M32.354 53.9658V60.54H10.0745V53.9658H32.354ZM12.6007 16.2245V60.54H4.23067V16.2245H12.6007ZM71.8301 37.2561V39.5389C71.8301 42.8869 71.3837 45.9001 70.4909 48.5785C69.5981 51.2366 68.3299 53.4991 66.6864 55.3658C65.0428 57.2326 63.0847 58.6631 60.8121 59.6574C58.5395 60.6516 56.0133 61.1488 53.2334 61.1488C50.4942 61.1488 47.9781 60.6516 45.6852 59.6574C43.4126 58.6631 41.4444 57.2326 39.7805 55.3658C38.1166 53.4991 36.8282 51.2366 35.9151 48.5785C35.002 45.9001 34.5454 42.8869 34.5454 39.5389V37.2561C34.5454 33.8878 35.002 30.8746 35.9151 28.2165C36.8282 25.5584 38.1065 23.2959 39.7501 21.4291C41.3936 19.5421 43.3517 18.1014 45.6243 17.1072C47.9172 16.1129 50.4333 15.6158 53.1726 15.6158C55.9524 15.6158 58.4787 16.1129 60.7513 17.1072C63.0238 18.1014 64.9819 19.5421 66.6255 21.4291C68.2894 23.2959 69.5677 25.5584 70.4605 28.2165C71.3736 30.8746 71.8301 33.8878 71.8301 37.2561ZM63.3688 39.5389V37.1952C63.3688 34.7806 63.1456 32.6602 62.6992 30.834C62.2528 28.9875 61.5933 27.4353 60.7208 26.1772C59.8483 24.9192 58.7729 23.9757 57.4945 23.3466C56.2162 22.6973 54.7756 22.3727 53.1726 22.3727C51.5493 22.3727 50.1086 22.6973 48.8506 23.3466C47.6128 23.9757 46.5577 24.9192 45.6852 26.1772C44.8127 27.4353 44.1431 28.9875 43.6764 30.834C43.23 32.6602 43.0068 34.7806 43.0068 37.1952V39.5389C43.0068 41.9332 43.23 44.0536 43.6764 45.9001C44.1431 47.7466 44.8127 49.309 45.6852 50.5873C46.578 51.8453 47.6534 52.799 48.9115 53.4483C50.1695 54.0976 51.6102 54.4223 53.2334 54.4223C54.8567 54.4223 56.2974 54.0976 57.5554 53.4483C58.8135 52.799 59.8686 51.8453 60.7208 50.5873C61.5933 49.309 62.2528 47.7466 62.6992 45.9001C63.1456 44.0536 63.3688 41.9332 63.3688 39.5389ZM104.854 45.961H113.224C113.001 48.9234 112.179 51.5511 110.758 53.844C109.338 56.1166 107.36 57.9022 104.823 59.2008C102.287 60.4995 99.2128 61.1488 95.601 61.1488C92.8212 61.1488 90.3152 60.6618 88.0832 59.6878C85.8715 58.6936 83.9743 57.2833 82.3916 55.4571C80.8292 53.6107 79.632 51.3989 78.8001 48.822C77.9682 46.2247 77.5522 43.313 77.5522 40.0867V36.7083C77.5522 33.482 77.9783 30.5702 78.8305 27.973C79.6828 25.3757 80.9002 23.164 82.4829 21.3378C84.0859 19.4913 86.0034 18.071 88.2354 17.0767C90.4877 16.0825 93.0038 15.5853 95.7837 15.5853C99.3955 15.5853 102.449 16.2549 104.945 17.5941C107.441 18.9131 109.379 20.7291 110.758 23.0423C112.138 25.3554 112.97 28.0136 113.254 31.0166H104.884C104.722 29.1499 104.316 27.5672 103.667 26.2685C103.038 24.9699 102.084 23.9858 100.806 23.3162C99.5476 22.6263 97.8736 22.2814 95.7837 22.2814C94.1604 22.2814 92.7299 22.5857 91.4921 23.1945C90.2747 23.8032 89.2601 24.7163 88.4485 25.9337C87.6368 27.1309 87.0281 28.6324 86.6223 30.4383C86.2165 32.2239 86.0135 34.2936 86.0135 36.6474V40.0867C86.0135 42.339 86.1962 44.358 86.5614 46.1436C86.9266 47.9292 87.4948 49.4409 88.2658 50.6786C89.0369 51.9164 90.0312 52.8599 91.2486 53.5092C92.4661 54.1585 93.9169 54.4832 95.601 54.4832C97.6504 54.4832 99.3143 54.1585 100.593 53.5092C101.891 52.8599 102.875 51.9062 103.545 50.6482C104.235 49.3901 104.671 47.8277 104.854 45.961ZM137.329 22.951L124.698 60.54H115.841L132.399 16.2245H138.06L137.329 22.951ZM147.891 60.54L135.199 22.951L134.438 16.2245H140.13L156.778 60.54H147.891ZM147.313 44.0739V50.6786H123.542V44.0739H147.313ZM189.467 53.9658V60.54H167.188V53.9658H189.467ZM169.714 16.2245V60.54H161.344V16.2245H169.714Z" fill="#2C2C2C"/>
<path d="M385.405 53.9658V60.54H361.847V53.9658H385.405ZM364.403 16.2245V60.54H356.033V16.2245H364.403ZM382.331 34.5168V40.9389H361.847V34.5168H382.331ZM385.313 16.2245V22.8292H361.847V16.2245H385.313ZM397.884 16.2245L406.741 32.021L415.628 16.2245H425.246L412.097 38.1996L425.581 60.54H415.872L406.741 44.4391L397.64 60.54H387.9L401.384 38.1996L388.235 16.2245H397.884ZM447.769 44.3783H436.355V37.804H447.769C449.636 37.804 451.147 37.4996 452.304 36.8909C453.481 36.2619 454.343 35.4096 454.891 34.3342C455.439 33.2385 455.713 31.9906 455.713 30.5905C455.713 29.231 455.439 27.9628 454.891 26.786C454.343 25.6091 453.481 24.6554 452.304 23.9249C451.147 23.1945 449.636 22.8292 447.769 22.8292H439.095V60.54H430.725V16.2245H447.769C451.218 16.2245 454.161 16.8434 456.596 18.0811C459.051 19.2986 460.918 20.9929 462.196 23.164C463.495 25.3149 464.144 27.7701 464.144 30.5297C464.144 33.3907 463.495 35.856 462.196 37.9257C460.918 39.9954 459.051 41.5882 456.596 42.7043C454.161 43.8203 451.218 44.3783 447.769 44.3783ZM498.841 53.9658V60.54H476.562V53.9658H498.841ZM479.088 16.2245V60.54H470.718V16.2245H479.088ZM538.318 37.2561V39.5389C538.318 42.8869 537.871 45.9001 536.978 48.5785C536.086 51.2366 534.817 53.4991 533.174 55.3658C531.53 57.2326 529.572 58.6631 527.3 59.6574C525.027 60.6516 522.501 61.1488 519.721 61.1488C516.982 61.1488 514.466 60.6516 512.173 59.6574C509.9 58.6631 507.932 57.2326 506.268 55.3658C504.604 53.4991 503.316 51.2366 502.403 48.5785C501.489 45.9001 501.033 42.8869 501.033 39.5389V37.2561C501.033 33.8878 501.489 30.8746 502.403 28.2165C503.316 25.5584 504.594 23.2959 506.238 21.4291C507.881 19.5421 509.839 18.1014 512.112 17.1072C514.405 16.1129 516.921 15.6158 519.66 15.6158C522.44 15.6158 524.966 16.1129 527.239 17.1072C529.511 18.1014 531.469 19.5421 533.113 21.4291C534.777 23.2959 536.055 25.5584 536.948 28.2165C537.861 30.8746 538.318 33.8878 538.318 37.2561ZM529.856 39.5389V37.1952C529.856 34.7806 529.633 32.6602 529.187 30.834C528.74 28.9875 528.081 27.4353 527.208 26.1772C526.336 24.9192 525.26 23.9757 523.982 23.3466C522.704 22.6973 521.263 22.3727 519.66 22.3727C518.037 22.3727 516.596 22.6973 515.338 23.3466C514.1 23.9757 513.045 24.9192 512.173 26.1772C511.3 27.4353 510.631 28.9875 510.164 30.834C509.717 32.6602 509.494 34.7806 509.494 37.1952V39.5389C509.494 41.9332 509.717 44.0536 510.164 45.9001C510.631 47.7466 511.3 49.309 512.173 50.5873C513.065 51.8453 514.141 52.799 515.399 53.4483C516.657 54.0976 518.098 54.4223 519.721 54.4223C521.344 54.4223 522.785 54.0976 524.043 53.4483C525.301 52.799 526.356 51.8453 527.208 50.5873C528.081 49.309 528.74 47.7466 529.187 45.9001C529.633 44.0536 529.856 41.9332 529.856 39.5389ZM545.409 16.2245H561.51C564.879 16.2245 567.77 16.7318 570.185 17.7463C572.599 18.7609 574.456 20.2624 575.754 22.2509C577.053 24.2394 577.702 26.6845 577.702 29.5861C577.702 31.879 577.297 33.8675 576.485 35.5517C575.673 37.2358 574.527 38.6461 573.046 39.7823C571.585 40.9186 569.86 41.8114 567.871 42.4608L565.254 43.8H551.04L550.979 37.1952H561.602C563.326 37.1952 564.757 36.8909 565.893 36.2821C567.029 35.6734 567.882 34.8313 568.45 33.7559C569.038 32.6805 569.332 31.4529 569.332 30.0731C569.332 28.5919 569.048 27.3135 568.48 26.2381C567.912 25.1424 567.05 24.3003 565.893 23.7119C564.736 23.1234 563.276 22.8292 561.51 22.8292H553.779V60.54H545.409V16.2245ZM570.428 60.54L560.171 40.6954L569.028 40.665L579.407 60.1139V60.54H570.428ZM614.409 53.9658V60.54H590.851V53.9658H614.409ZM593.408 16.2245V60.54H585.038V16.2245H593.408ZM611.335 34.5168V40.9389H590.851V34.5168H611.335ZM614.318 16.2245V22.8292H590.851V16.2245H614.318ZM620.222 16.2245H636.323C639.691 16.2245 642.583 16.7318 644.998 17.7463C647.412 18.7609 649.269 20.2624 650.567 22.2509C651.866 24.2394 652.515 26.6845 652.515 29.5861C652.515 31.879 652.11 33.8675 651.298 35.5517C650.486 37.2358 649.34 38.6461 647.859 39.7823C646.398 40.9186 644.673 41.8114 642.684 42.4608L640.067 43.8H625.853L625.792 37.1952H636.414C638.139 37.1952 639.57 36.8909 640.706 36.2821C641.842 35.6734 642.695 34.8313 643.263 33.7559C643.851 32.6805 644.145 31.4529 644.145 30.0731C644.145 28.5919 643.861 27.3135 643.293 26.2381C642.725 25.1424 641.863 24.3003 640.706 23.7119C639.549 23.1234 638.088 22.8292 636.323 22.8292H628.592V60.54H620.222V16.2245ZM645.241 60.54L634.984 40.6954L643.841 40.665L654.22 60.1139V60.54H645.241Z" fill="#2C2C2C"/>
</svg>
